<svg viewBox="0 0 1544 500" xmlns="http://www.w3.org/2000/svg">
  <defs>
    <linearGradient id="bg" x1="0" y1="0" x2="1" y2="1">
      <stop offset="0" stop-color="#253268"/>
      <stop offset="1" stop-color="#354788"/>
    </linearGradient>
    <filter id="shadow" x="-30%" y="-30%" width="160%" height="160%">
      <feDropShadow dx="0" dy="12" stdDeviation="16" flood-color="#131a3a" flood-opacity="0.45"/>
    </filter>
  </defs>

  <!-- background -->
  <rect width="1544" height="500" fill="url(#bg)"/>
  <circle cx="1450" cy="30" r="220" fill="#009db5" opacity="0.16"/>
  <circle cx="80" cy="490" r="170" fill="#e5335b" opacity="0.14"/>
  <circle cx="900" cy="-60" r="140" fill="#f0d2cc" opacity="0.08"/>

  <!-- message card + padlock motif (same as icon) -->
  <g transform="translate(120, 90)">
    <g filter="url(#shadow)">
      <rect x="0" y="0" width="272" height="228" rx="28" fill="#ffffff"/>
    </g>
    <rect x="34" y="36" width="112" height="26" rx="13" fill="#e5335b"/>
    <rect x="34" y="86" width="204" height="16" rx="8" fill="#f0d2cc"/>
    <rect x="34" y="116" width="160" height="16" rx="8" fill="#f0d2cc"/>
    <rect x="34" y="152" width="176" height="44" rx="12" fill="#eef0f7"/>
    <circle cx="60" cy="174" r="8" fill="#253268"/>
    <circle cx="88" cy="174" r="8" fill="#253268"/>
    <circle cx="116" cy="174" r="8" fill="#253268"/>
    <circle cx="144" cy="174" r="8" fill="#253268"/>
    <g filter="url(#shadow)">
      <path d="M 200 240 v -38 a 46 46 0 0 1 92 0 v 38" fill="none" stroke="#009db5" stroke-width="22" stroke-linecap="round"/>
      <rect x="176" y="232" width="140" height="112" rx="22" fill="#fec704"/>
      <circle cx="246" cy="276" r="16" fill="#253268"/>
      <rect x="239" y="284" width="14" height="30" rx="7" fill="#253268"/>
    </g>
  </g>

  <!-- copy -->
  <text x="520" y="205" font-family="Noto Sans" font-weight="700" font-size="52" fill="#ffffff">ACW Custom Messages</text>
  <text x="520" y="268" font-family="Noto Sans" font-weight="700" font-size="52" fill="#ffffff">for Password Protected Pages</text>
  <text x="522" y="330" font-family="Noto Sans" font-size="30" fill="#f0d2cc">A different custom message for each password protected page.</text>
</svg>
